<mxfile host="65bd71144e">
    <diagram id="C5RBs43oDa-KdzZeNtuy" name="Page-1">
        <mxGraphModel dx="2174" dy="1781" grid="1" gridSize="10" guides="1" tooltips="1" connect="1" arrows="1" fold="1" page="1" pageScale="1" pageWidth="827" pageHeight="1169" math="0" shadow="0">
            <root>
                <mxCell id="WIyWlLk6GJQsqaUBKTNV-0"/>
                <mxCell id="WIyWlLk6GJQsqaUBKTNV-1" parent="WIyWlLk6GJQsqaUBKTNV-0"/>
                <mxCell id="hIa9dAdDlLu55Ho5dlvz-57" style="edgeStyle=orthogonalEdgeStyle;rounded=0;orthogonalLoop=1;jettySize=auto;html=1;entryX=0;entryY=0.5;entryDx=0;entryDy=0;" parent="WIyWlLk6GJQsqaUBKTNV-1" source="hIa9dAdDlLu55Ho5dlvz-54" target="hIa9dAdDlLu55Ho5dlvz-26" edge="1">
                    <mxGeometry relative="1" as="geometry">
                        <Array as="points">
                            <mxPoint x="71" y="250"/>
                        </Array>
                    </mxGeometry>
                </mxCell>
                <mxCell id="hIa9dAdDlLu55Ho5dlvz-54" value="梯度下降结果，关于W权参的梯度向量" style="rounded=0;whiteSpace=wrap;html=1;" parent="WIyWlLk6GJQsqaUBKTNV-1" vertex="1">
                    <mxGeometry x="2.5" y="305" width="137.5" height="625" as="geometry"/>
                </mxCell>
                <mxCell id="RyURgr3Y3XsO1ozv0hEs-61" value="第一个激活函数层，正向实现基于加权输入值代入F()预测，反向实现正向输入值代入F()导函数乘上一层传来反向信号" style="whiteSpace=wrap;html=1;verticalAlign=top;movable=1;resizable=1;rotatable=1;deletable=1;editable=1;connectable=1;fillColor=#dae8fc;strokeColor=#6c8ebf;" parent="WIyWlLk6GJQsqaUBKTNV-1" vertex="1">
                    <mxGeometry x="180" y="555" width="440" height="120" as="geometry"/>
                </mxCell>
                <mxCell id="RyURgr3Y3XsO1ozv0hEs-0" value="开始梯度下载循环&lt;br&gt;循环i=N次" style="rounded=1;whiteSpace=wrap;html=1;" parent="WIyWlLk6GJQsqaUBKTNV-1" vertex="1">
                    <mxGeometry x="340" y="-90" width="120" height="60" as="geometry"/>
                </mxCell>
                <mxCell id="hIa9dAdDlLu55Ho5dlvz-30" style="edgeStyle=orthogonalEdgeStyle;rounded=0;orthogonalLoop=1;jettySize=auto;html=1;" parent="WIyWlLk6GJQsqaUBKTNV-1" source="RyURgr3Y3XsO1ozv0hEs-2" target="RyURgr3Y3XsO1ozv0hEs-31" edge="1">
                    <mxGeometry relative="1" as="geometry"/>
                </mxCell>
                <mxCell id="hIa9dAdDlLu55Ho5dlvz-59" style="edgeStyle=orthogonalEdgeStyle;rounded=0;orthogonalLoop=1;jettySize=auto;html=1;entryX=0.5;entryY=0;entryDx=0;entryDy=0;" parent="WIyWlLk6GJQsqaUBKTNV-1" source="RyURgr3Y3XsO1ozv0hEs-2" target="RyURgr3Y3XsO1ozv0hEs-77" edge="1">
                    <mxGeometry relative="1" as="geometry"/>
                </mxCell>
                <mxCell id="RyURgr3Y3XsO1ozv0hEs-2" value="载入batch_size&lt;br&gt;例如100个测试集(X_train,Y_train)数据" style="shape=process;whiteSpace=wrap;html=1;backgroundOutline=1;" parent="WIyWlLk6GJQsqaUBKTNV-1" vertex="1">
                    <mxGeometry x="451" y="110" width="160" height="60" as="geometry"/>
                </mxCell>
                <mxCell id="RyURgr3Y3XsO1ozv0hEs-43" value="" style="edgeStyle=orthogonalEdgeStyle;rounded=0;orthogonalLoop=1;jettySize=auto;html=1;fontSize=11;" parent="WIyWlLk6GJQsqaUBKTNV-1" source="RyURgr3Y3XsO1ozv0hEs-6" target="RyURgr3Y3XsO1ozv0hEs-0" edge="1">
                    <mxGeometry relative="1" as="geometry"/>
                </mxCell>
                <mxCell id="RyURgr3Y3XsO1ozv0hEs-6" value="初始化每一层的权参（W）,偏参(B)" style="shape=process;whiteSpace=wrap;html=1;backgroundOutline=1;" parent="WIyWlLk6GJQsqaUBKTNV-1" vertex="1">
                    <mxGeometry x="340" y="-200" width="120" height="60" as="geometry"/>
                </mxCell>
                <mxCell id="RyURgr3Y3XsO1ozv0hEs-9" style="edgeStyle=orthogonalEdgeStyle;rounded=0;orthogonalLoop=1;jettySize=auto;html=1;exitX=0.5;exitY=1;exitDx=0;exitDy=0;" parent="WIyWlLk6GJQsqaUBKTNV-1" source="RyURgr3Y3XsO1ozv0hEs-7" target="RyURgr3Y3XsO1ozv0hEs-6" edge="1">
                    <mxGeometry relative="1" as="geometry"/>
                </mxCell>
                <mxCell id="RyURgr3Y3XsO1ozv0hEs-7" value="实例化神经网络" style="rounded=1;whiteSpace=wrap;html=1;" parent="WIyWlLk6GJQsqaUBKTNV-1" vertex="1">
                    <mxGeometry x="340" y="-330" width="120" height="60" as="geometry"/>
                </mxCell>
                <mxCell id="RyURgr3Y3XsO1ozv0hEs-85" style="edgeStyle=orthogonalEdgeStyle;rounded=0;orthogonalLoop=1;jettySize=auto;html=1;entryX=0.5;entryY=0;entryDx=0;entryDy=0;fontSize=11;" parent="WIyWlLk6GJQsqaUBKTNV-1" source="RyURgr3Y3XsO1ozv0hEs-30" target="RyURgr3Y3XsO1ozv0hEs-44" edge="1">
                    <mxGeometry relative="1" as="geometry"/>
                </mxCell>
                <mxCell id="RyURgr3Y3XsO1ozv0hEs-30" value="激活函数层，对应激活函数F()&lt;br&gt;X_1=F(Z_0)" style="shape=process;whiteSpace=wrap;html=1;backgroundOutline=1;" parent="WIyWlLk6GJQsqaUBKTNV-1" vertex="1">
                    <mxGeometry x="451" y="600" width="160" height="60" as="geometry"/>
                </mxCell>
                <mxCell id="RyURgr3Y3XsO1ozv0hEs-31" value="载入X_0,初始测试数据" style="shape=parallelogram;perimeter=parallelogramPerimeter;whiteSpace=wrap;html=1;fixedSize=1;" parent="WIyWlLk6GJQsqaUBKTNV-1" vertex="1">
                    <mxGeometry x="456" y="220" width="150" height="60" as="geometry"/>
                </mxCell>
                <mxCell id="RyURgr3Y3XsO1ozv0hEs-32" value="&lt;br&gt;备注：&lt;br&gt;X_n：第n层网络的输入数据&lt;br&gt;&lt;br&gt;Y_n：X_n权参加权输出数据：Y_n=X_n*W+B&lt;br&gt;&lt;br&gt;L():损失函数&lt;br&gt;&lt;br&gt;Y_t:测试结果数据" style="shape=note;whiteSpace=wrap;html=1;backgroundOutline=1;fontColor=#000000;darkOpacity=0.05;fillColor=#FFF9B2;strokeColor=none;fillStyle=solid;direction=west;gradientDirection=north;gradientColor=#FFF2A1;shadow=1;size=20;pointerEvents=1;" parent="WIyWlLk6GJQsqaUBKTNV-1" vertex="1">
                    <mxGeometry x="609" y="-170" width="180" height="160" as="geometry"/>
                </mxCell>
                <mxCell id="RyURgr3Y3XsO1ozv0hEs-34" value="第1个Affine层：实现正向权参赋值，以及反向求权参梯度" style="whiteSpace=wrap;html=1;verticalAlign=top;movable=1;resizable=1;rotatable=1;deletable=1;editable=1;connectable=1;fillColor=#fff2cc;strokeColor=#d6b656;" parent="WIyWlLk6GJQsqaUBKTNV-1" vertex="1">
                    <mxGeometry x="170" y="330" width="439" height="120" as="geometry"/>
                </mxCell>
                <mxCell id="RyURgr3Y3XsO1ozv0hEs-44" value="X_1作为下一层输入值" style="shape=parallelogram;perimeter=parallelogramPerimeter;whiteSpace=wrap;html=1;fixedSize=1;" parent="WIyWlLk6GJQsqaUBKTNV-1" vertex="1">
                    <mxGeometry x="456" y="700" width="150" height="60" as="geometry"/>
                </mxCell>
                <mxCell id="RyURgr3Y3XsO1ozv0hEs-86" style="edgeStyle=orthogonalEdgeStyle;rounded=0;orthogonalLoop=1;jettySize=auto;html=1;entryX=0.5;entryY=0;entryDx=0;entryDy=0;fontSize=11;" parent="WIyWlLk6GJQsqaUBKTNV-1" source="RyURgr3Y3XsO1ozv0hEs-49" target="RyURgr3Y3XsO1ozv0hEs-72" edge="1">
                    <mxGeometry relative="1" as="geometry"/>
                </mxCell>
                <mxCell id="RyURgr3Y3XsO1ozv0hEs-49" value="&lt;br style=&quot;border-color: var(--border-color); color: rgb(77, 77, 77); font-family: -apple-system, &amp;quot;SF UI Text&amp;quot;, Arial, &amp;quot;PingFang SC&amp;quot;, &amp;quot;Hiragino Sans GB&amp;quot;, &amp;quot;Microsoft YaHei&amp;quot;, &amp;quot;WenQuanYi Micro Hei&amp;quot;, sans-serif; font-size: 11px; font-variant-ligatures: no-common-ligatures; text-align: start;&quot;&gt;&lt;span style=&quot;color: rgb(77, 77, 77); font-family: -apple-system, &amp;quot;SF UI Text&amp;quot;, Arial, &amp;quot;PingFang SC&amp;quot;, &amp;quot;Hiragino Sans GB&amp;quot;, &amp;quot;Microsoft YaHei&amp;quot;, &amp;quot;WenQuanYi Micro Hei&amp;quot;, sans-serif; font-size: 11px; font-variant-ligatures: no-common-ligatures; text-align: start; background-color: rgb(255, 255, 255);&quot;&gt;forwad:&lt;/span&gt;&lt;br style=&quot;border-color: var(--border-color); color: rgb(77, 77, 77); font-family: -apple-system, &amp;quot;SF UI Text&amp;quot;, Arial, &amp;quot;PingFang SC&amp;quot;, &amp;quot;Hiragino Sans GB&amp;quot;, &amp;quot;Microsoft YaHei&amp;quot;, &amp;quot;WenQuanYi Micro Hei&amp;quot;, sans-serif; font-size: 11px; font-variant-ligatures: no-common-ligatures; text-align: start;&quot;&gt;&lt;span style=&quot;color: rgb(77, 77, 77); font-family: -apple-system, &amp;quot;SF UI Text&amp;quot;, Arial, &amp;quot;PingFang SC&amp;quot;, &amp;quot;Hiragino Sans GB&amp;quot;, &amp;quot;Microsoft YaHei&amp;quot;, &amp;quot;WenQuanYi Micro Hei&amp;quot;, sans-serif; font-size: 11px; font-variant-ligatures: no-common-ligatures; text-align: start; background-color: rgb(255, 255, 255);&quot;&gt;实现Y_0=X_0*W_0+B_0&lt;/span&gt;" style="shape=process;whiteSpace=wrap;html=1;backgroundOutline=1;fontSize=11;movable=1;resizable=1;rotatable=1;deletable=1;editable=1;connectable=1;" parent="WIyWlLk6GJQsqaUBKTNV-1" vertex="1">
                    <mxGeometry x="451" y="370" width="160" height="60" as="geometry"/>
                </mxCell>
                <mxCell id="hIa9dAdDlLu55Ho5dlvz-56" value="" style="edgeStyle=orthogonalEdgeStyle;rounded=0;orthogonalLoop=1;jettySize=auto;html=1;" parent="WIyWlLk6GJQsqaUBKTNV-1" source="RyURgr3Y3XsO1ozv0hEs-50" target="hIa9dAdDlLu55Ho5dlvz-21" edge="1">
                    <mxGeometry relative="1" as="geometry"/>
                </mxCell>
                <mxCell id="RyURgr3Y3XsO1ozv0hEs-50" value="backward&lt;br style=&quot;border-color: var(--border-color);&quot;&gt;1.L'(W_0)=X_0(T)@L'(out_0)&lt;br style=&quot;border-color: var(--border-color);&quot;&gt;2.L'(out_end)=L'(out_0)@W_0(T)" style="shape=process;whiteSpace=wrap;html=1;backgroundOutline=1;fontSize=11;movable=1;resizable=1;rotatable=1;deletable=1;editable=1;connectable=1;" parent="WIyWlLk6GJQsqaUBKTNV-1" vertex="1">
                    <mxGeometry x="175" y="370" width="210" height="60" as="geometry"/>
                </mxCell>
                <mxCell id="RyURgr3Y3XsO1ozv0hEs-53" value="第2个Affine层：实现正向权参赋值，以及反向求权参梯度" style="whiteSpace=wrap;html=1;verticalAlign=top;movable=1;resizable=1;rotatable=1;deletable=1;editable=1;connectable=1;fillColor=#fff2cc;strokeColor=#d6b656;" parent="WIyWlLk6GJQsqaUBKTNV-1" vertex="1">
                    <mxGeometry x="180" y="790" width="450" height="120" as="geometry"/>
                </mxCell>
                <mxCell id="RyURgr3Y3XsO1ozv0hEs-88" style="edgeStyle=orthogonalEdgeStyle;rounded=0;orthogonalLoop=1;jettySize=auto;html=1;fontSize=11;" parent="WIyWlLk6GJQsqaUBKTNV-1" source="RyURgr3Y3XsO1ozv0hEs-54" target="RyURgr3Y3XsO1ozv0hEs-75" edge="1">
                    <mxGeometry relative="1" as="geometry"/>
                </mxCell>
                <mxCell id="RyURgr3Y3XsO1ozv0hEs-54" value="&lt;br style=&quot;border-color: var(--border-color); color: rgb(77, 77, 77); font-family: -apple-system, &amp;quot;SF UI Text&amp;quot;, Arial, &amp;quot;PingFang SC&amp;quot;, &amp;quot;Hiragino Sans GB&amp;quot;, &amp;quot;Microsoft YaHei&amp;quot;, &amp;quot;WenQuanYi Micro Hei&amp;quot;, sans-serif; font-size: 11px; font-variant-ligatures: no-common-ligatures; text-align: start;&quot;&gt;&lt;span style=&quot;color: rgb(77, 77, 77); font-family: -apple-system, &amp;quot;SF UI Text&amp;quot;, Arial, &amp;quot;PingFang SC&amp;quot;, &amp;quot;Hiragino Sans GB&amp;quot;, &amp;quot;Microsoft YaHei&amp;quot;, &amp;quot;WenQuanYi Micro Hei&amp;quot;, sans-serif; font-size: 11px; font-variant-ligatures: no-common-ligatures; text-align: start; background-color: rgb(255, 255, 255);&quot;&gt;forwad:&lt;/span&gt;&lt;br style=&quot;border-color: var(--border-color); color: rgb(77, 77, 77); font-family: -apple-system, &amp;quot;SF UI Text&amp;quot;, Arial, &amp;quot;PingFang SC&amp;quot;, &amp;quot;Hiragino Sans GB&amp;quot;, &amp;quot;Microsoft YaHei&amp;quot;, &amp;quot;WenQuanYi Micro Hei&amp;quot;, sans-serif; font-size: 11px; font-variant-ligatures: no-common-ligatures; text-align: start;&quot;&gt;&lt;span style=&quot;color: rgb(77, 77, 77); font-family: -apple-system, &amp;quot;SF UI Text&amp;quot;, Arial, &amp;quot;PingFang SC&amp;quot;, &amp;quot;Hiragino Sans GB&amp;quot;, &amp;quot;Microsoft YaHei&amp;quot;, &amp;quot;WenQuanYi Micro Hei&amp;quot;, sans-serif; font-size: 11px; font-variant-ligatures: no-common-ligatures; text-align: start; background-color: rgb(255, 255, 255);&quot;&gt;实现Y_1=X_1*W_1+B_1&lt;/span&gt;" style="shape=process;whiteSpace=wrap;html=1;backgroundOutline=1;fontSize=11;movable=1;resizable=1;rotatable=1;deletable=1;editable=1;connectable=1;" parent="WIyWlLk6GJQsqaUBKTNV-1" vertex="1">
                    <mxGeometry x="451" y="830" width="160" height="60" as="geometry"/>
                </mxCell>
                <mxCell id="hIa9dAdDlLu55Ho5dlvz-20" style="edgeStyle=orthogonalEdgeStyle;rounded=0;orthogonalLoop=1;jettySize=auto;html=1;" parent="WIyWlLk6GJQsqaUBKTNV-1" source="RyURgr3Y3XsO1ozv0hEs-55" target="hIa9dAdDlLu55Ho5dlvz-19" edge="1">
                    <mxGeometry relative="1" as="geometry"/>
                </mxCell>
                <mxCell id="RyURgr3Y3XsO1ozv0hEs-55" value="backward&lt;br&gt;1.L'(W_1)=X_1(T)@L'(out_2)&lt;br&gt;2.L'(out_1)=L'(out_2)@W_1(T)" style="shape=process;whiteSpace=wrap;html=1;backgroundOutline=1;fontSize=11;movable=1;resizable=1;rotatable=1;deletable=1;editable=1;connectable=1;" parent="WIyWlLk6GJQsqaUBKTNV-1" vertex="1">
                    <mxGeometry x="180" y="827.5" width="190" height="60" as="geometry"/>
                </mxCell>
                <mxCell id="RyURgr3Y3XsO1ozv0hEs-58" value="" style="endArrow=classic;html=1;rounded=0;fontSize=11;exitX=0.5;exitY=1;exitDx=0;exitDy=0;entryX=0.5;entryY=0;entryDx=0;entryDy=0;edgeStyle=orthogonalEdgeStyle;" parent="WIyWlLk6GJQsqaUBKTNV-1" source="RyURgr3Y3XsO1ozv0hEs-31" target="RyURgr3Y3XsO1ozv0hEs-49" edge="1">
                    <mxGeometry width="50" height="50" relative="1" as="geometry">
                        <mxPoint x="-120" y="390" as="sourcePoint"/>
                        <mxPoint x="-70" y="340" as="targetPoint"/>
                    </mxGeometry>
                </mxCell>
                <mxCell id="RyURgr3Y3XsO1ozv0hEs-56" style="edgeStyle=orthogonalEdgeStyle;rounded=0;orthogonalLoop=1;jettySize=auto;html=1;fontSize=11;" parent="WIyWlLk6GJQsqaUBKTNV-1" source="RyURgr3Y3XsO1ozv0hEs-44" target="RyURgr3Y3XsO1ozv0hEs-54" edge="1">
                    <mxGeometry relative="1" as="geometry"/>
                </mxCell>
                <mxCell id="RyURgr3Y3XsO1ozv0hEs-62" value="backward&lt;br style=&quot;border-color: var(--border-color);&quot;&gt;反向激活层，激活函数导函数F'()&lt;br style=&quot;border-color: var(--border-color);&quot;&gt;L'(out_0)=L'(out_1)*F'(X_1)" style="shape=process;whiteSpace=wrap;html=1;backgroundOutline=1;" parent="WIyWlLk6GJQsqaUBKTNV-1" vertex="1">
                    <mxGeometry x="190" y="600" width="210" height="60" as="geometry"/>
                </mxCell>
                <mxCell id="RyURgr3Y3XsO1ozv0hEs-63" value=".........." style="whiteSpace=wrap;html=1;verticalAlign=top;movable=1;resizable=1;rotatable=1;deletable=1;editable=1;connectable=1;" parent="WIyWlLk6GJQsqaUBKTNV-1" vertex="1">
                    <mxGeometry x="180" y="1169" width="450" height="30" as="geometry"/>
                </mxCell>
                <mxCell id="RyURgr3Y3XsO1ozv0hEs-64" value="激活函数层，对应激活函数F()&lt;br&gt;X_2=F(Z_1)" style="shape=process;whiteSpace=wrap;html=1;backgroundOutline=1;" parent="WIyWlLk6GJQsqaUBKTNV-1" vertex="1">
                    <mxGeometry x="451" y="1050" width="160" height="60" as="geometry"/>
                </mxCell>
                <mxCell id="RyURgr3Y3XsO1ozv0hEs-65" value="&amp;nbsp;" style="shape=process;whiteSpace=wrap;html=1;backgroundOutline=1;" parent="WIyWlLk6GJQsqaUBKTNV-1" vertex="1">
                    <mxGeometry x="251" y="1050" width="160" height="60" as="geometry"/>
                </mxCell>
                <mxCell id="RyURgr3Y3XsO1ozv0hEs-67" value="第2个激活函数层，正向实现基于加权输入值代入F()预测，反向实现正向输入值代入F()导函数乘上一层传来反向信号" style="whiteSpace=wrap;html=1;verticalAlign=top;movable=1;resizable=1;rotatable=1;deletable=1;editable=1;connectable=1;fillColor=#dae8fc;strokeColor=#6c8ebf;" parent="WIyWlLk6GJQsqaUBKTNV-1" vertex="1">
                    <mxGeometry x="170" y="1020" width="460" height="120" as="geometry"/>
                </mxCell>
                <mxCell id="RyURgr3Y3XsO1ozv0hEs-68" value="forward&lt;br&gt;激活函数层，对应激活函数F()&lt;br&gt;X_2=F(Z_1)" style="shape=process;whiteSpace=wrap;html=1;backgroundOutline=1;" parent="WIyWlLk6GJQsqaUBKTNV-1" vertex="1">
                    <mxGeometry x="451" y="1060" width="160" height="70" as="geometry"/>
                </mxCell>
                <mxCell id="RyURgr3Y3XsO1ozv0hEs-69" value="输出层。激活函数可选择softmax，恒等函数等" style="whiteSpace=wrap;html=1;verticalAlign=top;movable=1;resizable=1;rotatable=1;deletable=1;editable=1;connectable=1;fillColor=#dae8fc;strokeColor=#6c8ebf;" parent="WIyWlLk6GJQsqaUBKTNV-1" vertex="1">
                    <mxGeometry x="180" y="1310" width="450" height="140" as="geometry"/>
                </mxCell>
                <mxCell id="RyURgr3Y3XsO1ozv0hEs-93" style="edgeStyle=orthogonalEdgeStyle;rounded=0;orthogonalLoop=1;jettySize=auto;html=1;entryX=0.5;entryY=0;entryDx=0;entryDy=0;fontSize=11;" parent="WIyWlLk6GJQsqaUBKTNV-1" source="RyURgr3Y3XsO1ozv0hEs-71" target="RyURgr3Y3XsO1ozv0hEs-76" edge="1">
                    <mxGeometry relative="1" as="geometry"/>
                </mxCell>
                <mxCell id="RyURgr3Y3XsO1ozv0hEs-71" value="&lt;span style=&quot;font-size: 11px;&quot;&gt;输入Y_n到输出层，&lt;br&gt;设Z_1=Y_n&lt;/span&gt;" style="shape=parallelogram;perimeter=parallelogramPerimeter;whiteSpace=wrap;html=1;fixedSize=1;" parent="WIyWlLk6GJQsqaUBKTNV-1" vertex="1">
                    <mxGeometry x="456" y="1220" width="150" height="60" as="geometry"/>
                </mxCell>
                <mxCell id="RyURgr3Y3XsO1ozv0hEs-91" style="edgeStyle=orthogonalEdgeStyle;rounded=0;orthogonalLoop=1;jettySize=auto;html=1;entryX=0.5;entryY=0;entryDx=0;entryDy=0;fontSize=11;" parent="WIyWlLk6GJQsqaUBKTNV-1" source="RyURgr3Y3XsO1ozv0hEs-75" target="RyURgr3Y3XsO1ozv0hEs-68" edge="1">
                    <mxGeometry relative="1" as="geometry"/>
                </mxCell>
                <mxCell id="RyURgr3Y3XsO1ozv0hEs-75" value="&lt;span style=&quot;font-size: 11px;&quot;&gt;输入Y_1到激活函数层，&lt;br&gt;设Z_1=Y_1&lt;/span&gt;" style="shape=parallelogram;perimeter=parallelogramPerimeter;whiteSpace=wrap;html=1;fixedSize=1;" parent="WIyWlLk6GJQsqaUBKTNV-1" vertex="1">
                    <mxGeometry x="456" y="930" width="150" height="60" as="geometry"/>
                </mxCell>
                <mxCell id="RyURgr3Y3XsO1ozv0hEs-83" value="" style="edgeStyle=orthogonalEdgeStyle;rounded=0;orthogonalLoop=1;jettySize=auto;html=1;fontSize=11;" parent="WIyWlLk6GJQsqaUBKTNV-1" source="RyURgr3Y3XsO1ozv0hEs-76" target="RyURgr3Y3XsO1ozv0hEs-81" edge="1">
                    <mxGeometry relative="1" as="geometry"/>
                </mxCell>
                <mxCell id="hIa9dAdDlLu55Ho5dlvz-4" style="edgeStyle=orthogonalEdgeStyle;rounded=0;orthogonalLoop=1;jettySize=auto;html=1;exitX=0;exitY=0.5;exitDx=0;exitDy=0;startArrow=none;" parent="WIyWlLk6GJQsqaUBKTNV-1" source="hIa9dAdDlLu55Ho5dlvz-6" target="hIa9dAdDlLu55Ho5dlvz-1" edge="1">
                    <mxGeometry relative="1" as="geometry"/>
                </mxCell>
                <mxCell id="RyURgr3Y3XsO1ozv0hEs-76" value="输出层，通过输出函数F()最终得到整体预测结果&lt;br&gt;Y_P=F(Z_n)" style="shape=process;whiteSpace=wrap;html=1;backgroundOutline=1;" parent="WIyWlLk6GJQsqaUBKTNV-1" vertex="1">
                    <mxGeometry x="451" y="1360" width="160" height="60" as="geometry"/>
                </mxCell>
                <mxCell id="RyURgr3Y3XsO1ozv0hEs-77" value="y_train&lt;br&gt;（测试集真实预测值）" style="shape=parallelogram;perimeter=parallelogramPerimeter;whiteSpace=wrap;html=1;fixedSize=1;" parent="WIyWlLk6GJQsqaUBKTNV-1" vertex="1">
                    <mxGeometry x="639" y="1600" width="120" height="60" as="geometry"/>
                </mxCell>
                <mxCell id="RyURgr3Y3XsO1ozv0hEs-78" value="误差函数计算层，设误差函L()" style="whiteSpace=wrap;html=1;verticalAlign=top;movable=1;resizable=1;rotatable=1;deletable=1;editable=1;connectable=1;fillColor=#f8cecc;strokeColor=#b85450;" parent="WIyWlLk6GJQsqaUBKTNV-1" vertex="1">
                    <mxGeometry x="180" y="1530" width="450" height="140" as="geometry"/>
                </mxCell>
                <mxCell id="hIa9dAdDlLu55Ho5dlvz-12" style="edgeStyle=orthogonalEdgeStyle;rounded=0;orthogonalLoop=1;jettySize=auto;html=1;exitX=0;exitY=0.5;exitDx=0;exitDy=0;" parent="WIyWlLk6GJQsqaUBKTNV-1" source="RyURgr3Y3XsO1ozv0hEs-79" edge="1">
                    <mxGeometry relative="1" as="geometry">
                        <mxPoint x="270" y="1510" as="targetPoint"/>
                    </mxGeometry>
                </mxCell>
                <mxCell id="RyURgr3Y3XsO1ozv0hEs-79" value="误差计算&lt;br&gt;loss_out=L(y_train-y_p)" style="shape=process;whiteSpace=wrap;html=1;backgroundOutline=1;" parent="WIyWlLk6GJQsqaUBKTNV-1" vertex="1">
                    <mxGeometry x="345" y="1590" width="160" height="60" as="geometry"/>
                </mxCell>
                <mxCell id="RyURgr3Y3XsO1ozv0hEs-80" style="edgeStyle=orthogonalEdgeStyle;rounded=0;orthogonalLoop=1;jettySize=auto;html=1;entryX=0.969;entryY=0.65;entryDx=0;entryDy=0;entryPerimeter=0;fontSize=11;" parent="WIyWlLk6GJQsqaUBKTNV-1" source="RyURgr3Y3XsO1ozv0hEs-77" target="RyURgr3Y3XsO1ozv0hEs-79" edge="1">
                    <mxGeometry relative="1" as="geometry"/>
                </mxCell>
                <mxCell id="RyURgr3Y3XsO1ozv0hEs-84" style="edgeStyle=orthogonalEdgeStyle;rounded=0;orthogonalLoop=1;jettySize=auto;html=1;entryX=1;entryY=0.25;entryDx=0;entryDy=0;fontSize=11;" parent="WIyWlLk6GJQsqaUBKTNV-1" source="RyURgr3Y3XsO1ozv0hEs-81" target="RyURgr3Y3XsO1ozv0hEs-79" edge="1">
                    <mxGeometry relative="1" as="geometry"/>
                </mxCell>
                <mxCell id="RyURgr3Y3XsO1ozv0hEs-81" value="Y_P" style="shape=parallelogram;perimeter=parallelogramPerimeter;whiteSpace=wrap;html=1;fixedSize=1;" parent="WIyWlLk6GJQsqaUBKTNV-1" vertex="1">
                    <mxGeometry x="471" y="1480" width="120" height="40" as="geometry"/>
                </mxCell>
                <mxCell id="RyURgr3Y3XsO1ozv0hEs-87" style="edgeStyle=orthogonalEdgeStyle;rounded=0;orthogonalLoop=1;jettySize=auto;html=1;fontSize=11;" parent="WIyWlLk6GJQsqaUBKTNV-1" source="RyURgr3Y3XsO1ozv0hEs-72" target="RyURgr3Y3XsO1ozv0hEs-30" edge="1">
                    <mxGeometry relative="1" as="geometry"/>
                </mxCell>
                <mxCell id="RyURgr3Y3XsO1ozv0hEs-72" value="&lt;span style=&quot;font-size: 11px;&quot;&gt;输入Y_0到激活函数层，&lt;br&gt;设Z_0=Y_0&lt;/span&gt;" style="shape=parallelogram;perimeter=parallelogramPerimeter;whiteSpace=wrap;html=1;fixedSize=1;" parent="WIyWlLk6GJQsqaUBKTNV-1" vertex="1">
                    <mxGeometry x="456" y="460" width="150" height="60" as="geometry"/>
                </mxCell>
                <mxCell id="RyURgr3Y3XsO1ozv0hEs-90" value="反向传播&lt;br&gt;1. 反向每层像上一层提供本层的out值对L误差函数导数dL/dout&lt;br&gt;2.每一层求得激活函数导函数，并代入保存的X_n，得到f'(X_n)&lt;br&gt;3. dL/dout_n=dL/dout*f'(x_N)" style="shape=note;whiteSpace=wrap;html=1;backgroundOutline=1;fontColor=#000000;darkOpacity=0.05;fillColor=#FFF9B2;strokeColor=none;fillStyle=solid;direction=west;gradientDirection=north;gradientColor=#FFF2A1;shadow=1;size=20;pointerEvents=1;" parent="WIyWlLk6GJQsqaUBKTNV-1" vertex="1">
                    <mxGeometry x="-80" y="1300" width="180" height="160" as="geometry"/>
                </mxCell>
                <mxCell id="hIa9dAdDlLu55Ho5dlvz-13" value="" style="edgeStyle=orthogonalEdgeStyle;rounded=0;orthogonalLoop=1;jettySize=auto;html=1;" parent="WIyWlLk6GJQsqaUBKTNV-1" source="hIa9dAdDlLu55Ho5dlvz-0" target="hIa9dAdDlLu55Ho5dlvz-1" edge="1">
                    <mxGeometry relative="1" as="geometry"/>
                </mxCell>
                <mxCell id="hIa9dAdDlLu55Ho5dlvz-0" value="返回求得误差值&lt;br&gt;导数L'(loss_out)=1" style="shape=parallelogram;perimeter=parallelogramPerimeter;whiteSpace=wrap;html=1;fixedSize=1;" parent="WIyWlLk6GJQsqaUBKTNV-1" vertex="1">
                    <mxGeometry x="200" y="1470" width="150" height="50" as="geometry"/>
                </mxCell>
                <mxCell id="hIa9dAdDlLu55Ho5dlvz-1" value="输出层，上一层的&lt;br&gt;L'(loss_out)=1&lt;br&gt;L'(out_n)=1*F(Y_P)" style="shape=process;whiteSpace=wrap;html=1;backgroundOutline=1;" parent="WIyWlLk6GJQsqaUBKTNV-1" vertex="1">
                    <mxGeometry x="200" y="1360" width="160" height="60" as="geometry"/>
                </mxCell>
                <mxCell id="hIa9dAdDlLu55Ho5dlvz-2" value="&lt;span style=&quot;font-size: 11px;&quot;&gt;返回&lt;/span&gt;L'(out_n)作为&lt;br&gt;反向输入值" style="shape=parallelogram;perimeter=parallelogramPerimeter;whiteSpace=wrap;html=1;fixedSize=1;" parent="WIyWlLk6GJQsqaUBKTNV-1" vertex="1">
                    <mxGeometry x="210" y="1220" width="150" height="60" as="geometry"/>
                </mxCell>
                <mxCell id="hIa9dAdDlLu55Ho5dlvz-5" value="backward&lt;br&gt;反向激活层，激活函数导函数F'()&lt;br&gt;L'(out_2)=L'(out_3)*F'(X_2)" style="shape=process;whiteSpace=wrap;html=1;backgroundOutline=1;" parent="WIyWlLk6GJQsqaUBKTNV-1" vertex="1">
                    <mxGeometry x="180" y="1060" width="200" height="70" as="geometry"/>
                </mxCell>
                <mxCell id="hIa9dAdDlLu55Ho5dlvz-6" value="传递&lt;br&gt;Y_P" style="text;html=1;align=center;verticalAlign=middle;resizable=0;points=[];autosize=1;strokeColor=none;fillColor=none;" parent="WIyWlLk6GJQsqaUBKTNV-1" vertex="1">
                    <mxGeometry x="385" y="1370" width="50" height="40" as="geometry"/>
                </mxCell>
                <mxCell id="hIa9dAdDlLu55Ho5dlvz-7" value="" style="edgeStyle=orthogonalEdgeStyle;rounded=0;orthogonalLoop=1;jettySize=auto;html=1;exitX=0;exitY=0.5;exitDx=0;exitDy=0;endArrow=none;" parent="WIyWlLk6GJQsqaUBKTNV-1" source="RyURgr3Y3XsO1ozv0hEs-76" target="hIa9dAdDlLu55Ho5dlvz-6" edge="1">
                    <mxGeometry relative="1" as="geometry">
                        <mxPoint x="451" y="1390" as="sourcePoint"/>
                        <mxPoint x="360" y="1390" as="targetPoint"/>
                    </mxGeometry>
                </mxCell>
                <mxCell id="hIa9dAdDlLu55Ho5dlvz-9" value="" style="endArrow=classic;html=1;rounded=0;exitX=0;exitY=0.5;exitDx=0;exitDy=0;entryX=1;entryY=0.5;entryDx=0;entryDy=0;startArrow=none;" parent="WIyWlLk6GJQsqaUBKTNV-1" source="hIa9dAdDlLu55Ho5dlvz-8" target="hIa9dAdDlLu55Ho5dlvz-5" edge="1">
                    <mxGeometry width="50" height="50" relative="1" as="geometry">
                        <mxPoint x="190" y="1230" as="sourcePoint"/>
                        <mxPoint x="240" y="1180" as="targetPoint"/>
                    </mxGeometry>
                </mxCell>
                <mxCell id="hIa9dAdDlLu55Ho5dlvz-8" value="传递&lt;br&gt;X_2" style="text;html=1;align=center;verticalAlign=middle;resizable=0;points=[];autosize=1;strokeColor=none;fillColor=none;" parent="WIyWlLk6GJQsqaUBKTNV-1" vertex="1">
                    <mxGeometry x="394.5" y="1075" width="50" height="40" as="geometry"/>
                </mxCell>
                <mxCell id="hIa9dAdDlLu55Ho5dlvz-10" value="" style="endArrow=none;html=1;rounded=0;exitX=0;exitY=0.5;exitDx=0;exitDy=0;entryX=1;entryY=0.5;entryDx=0;entryDy=0;" parent="WIyWlLk6GJQsqaUBKTNV-1" source="RyURgr3Y3XsO1ozv0hEs-68" target="hIa9dAdDlLu55Ho5dlvz-8" edge="1">
                    <mxGeometry width="50" height="50" relative="1" as="geometry">
                        <mxPoint x="451" y="1100" as="sourcePoint"/>
                        <mxPoint x="355" y="1100" as="targetPoint"/>
                    </mxGeometry>
                </mxCell>
                <mxCell id="hIa9dAdDlLu55Ho5dlvz-11" value="&lt;span style=&quot;font-size: 11px;&quot;&gt;返回&lt;/span&gt;L'(out_2)作为&lt;br&gt;反向输入值" style="shape=parallelogram;perimeter=parallelogramPerimeter;whiteSpace=wrap;html=1;fixedSize=1;" parent="WIyWlLk6GJQsqaUBKTNV-1" vertex="1">
                    <mxGeometry x="210" y="922.5" width="150" height="60" as="geometry"/>
                </mxCell>
                <mxCell id="hIa9dAdDlLu55Ho5dlvz-17" style="edgeStyle=orthogonalEdgeStyle;rounded=0;orthogonalLoop=1;jettySize=auto;html=1;entryX=1;entryY=0.5;entryDx=0;entryDy=0;" parent="WIyWlLk6GJQsqaUBKTNV-1" target="RyURgr3Y3XsO1ozv0hEs-55" edge="1">
                    <mxGeometry relative="1" as="geometry">
                        <mxPoint x="450" y="860" as="sourcePoint"/>
                        <mxPoint x="940" y="930" as="targetPoint"/>
                    </mxGeometry>
                </mxCell>
                <mxCell id="hIa9dAdDlLu55Ho5dlvz-18" value="传递&lt;br&gt;X_1&lt;br&gt;W_1&lt;br&gt;B_1" style="text;html=1;align=center;verticalAlign=middle;resizable=0;points=[];autosize=1;strokeColor=#b85450;fillColor=#f8cecc;" parent="WIyWlLk6GJQsqaUBKTNV-1" vertex="1">
                    <mxGeometry x="389" y="822.5" width="50" height="70" as="geometry"/>
                </mxCell>
                <mxCell id="hIa9dAdDlLu55Ho5dlvz-19" value="L'(W_1)就是该层W_1权参对L损失函数的偏导" style="ellipse;whiteSpace=wrap;html=1;aspect=fixed;fillColor=#d5e8d4;strokeColor=#82b366;" parent="WIyWlLk6GJQsqaUBKTNV-1" vertex="1">
                    <mxGeometry x="10" y="805" width="105" height="105" as="geometry"/>
                </mxCell>
                <mxCell id="hIa9dAdDlLu55Ho5dlvz-21" value="L'(W_0)就是该层W_0权参对L损失函数的偏导" style="ellipse;whiteSpace=wrap;html=1;aspect=fixed;fillColor=#d5e8d4;strokeColor=#82b366;" parent="WIyWlLk6GJQsqaUBKTNV-1" vertex="1">
                    <mxGeometry x="18.75" y="347.5" width="105" height="105" as="geometry"/>
                </mxCell>
                <mxCell id="hIa9dAdDlLu55Ho5dlvz-22" value="&lt;span style=&quot;font-size: 11px;&quot;&gt;返回&lt;/span&gt;L'(out_1)作为&lt;br&gt;反向输入值" style="shape=parallelogram;perimeter=parallelogramPerimeter;whiteSpace=wrap;html=1;fixedSize=1;" parent="WIyWlLk6GJQsqaUBKTNV-1" vertex="1">
                    <mxGeometry x="210" y="700" width="150" height="60" as="geometry"/>
                </mxCell>
                <mxCell id="hIa9dAdDlLu55Ho5dlvz-23" value="&lt;span style=&quot;font-size: 11px;&quot;&gt;返回&lt;/span&gt;L'(out_0)作为&lt;br&gt;反向输入值" style="shape=parallelogram;perimeter=parallelogramPerimeter;whiteSpace=wrap;html=1;fixedSize=1;" parent="WIyWlLk6GJQsqaUBKTNV-1" vertex="1">
                    <mxGeometry x="205" y="460" width="150" height="60" as="geometry"/>
                </mxCell>
                <mxCell id="hIa9dAdDlLu55Ho5dlvz-25" value="" style="endArrow=classic;html=1;rounded=0;exitX=1.19;exitY=0.586;exitDx=0;exitDy=0;exitPerimeter=0;" parent="WIyWlLk6GJQsqaUBKTNV-1" source="hIa9dAdDlLu55Ho5dlvz-24" target="RyURgr3Y3XsO1ozv0hEs-50" edge="1">
                    <mxGeometry width="50" height="50" relative="1" as="geometry">
                        <mxPoint x="190" y="530" as="sourcePoint"/>
                        <mxPoint x="240" y="480" as="targetPoint"/>
                    </mxGeometry>
                </mxCell>
                <mxCell id="hIa9dAdDlLu55Ho5dlvz-24" value="传递&lt;br&gt;X_0&lt;br&gt;W_0&lt;br&gt;B_0" style="text;html=1;align=center;verticalAlign=middle;resizable=0;points=[];autosize=1;strokeColor=#b85450;fillColor=#f8cecc;" parent="WIyWlLk6GJQsqaUBKTNV-1" vertex="1">
                    <mxGeometry x="394.5" y="365" width="50" height="70" as="geometry"/>
                </mxCell>
                <mxCell id="hIa9dAdDlLu55Ho5dlvz-32" value="" style="edgeStyle=orthogonalEdgeStyle;rounded=0;orthogonalLoop=1;jettySize=auto;html=1;" parent="WIyWlLk6GJQsqaUBKTNV-1" source="hIa9dAdDlLu55Ho5dlvz-26" target="hIa9dAdDlLu55Ho5dlvz-31" edge="1">
                    <mxGeometry relative="1" as="geometry"/>
                </mxCell>
                <mxCell id="hIa9dAdDlLu55Ho5dlvz-26" value="update,学习率=mu&lt;br&gt;基于更新函数，沿着W梯度方向更新权参&lt;br&gt;W=W-mu*L'(W)" style="shape=process;whiteSpace=wrap;html=1;backgroundOutline=1;fontSize=11;movable=1;resizable=1;rotatable=1;deletable=1;editable=1;connectable=1;" parent="WIyWlLk6GJQsqaUBKTNV-1" vertex="1">
                    <mxGeometry x="184.5" y="220" width="210" height="60" as="geometry"/>
                </mxCell>
                <mxCell id="hIa9dAdDlLu55Ho5dlvz-28" style="edgeStyle=orthogonalEdgeStyle;rounded=0;orthogonalLoop=1;jettySize=auto;html=1;" parent="WIyWlLk6GJQsqaUBKTNV-1" source="hIa9dAdDlLu55Ho5dlvz-27" target="RyURgr3Y3XsO1ozv0hEs-2" edge="1">
                    <mxGeometry relative="1" as="geometry"/>
                </mxCell>
                <mxCell id="hIa9dAdDlLu55Ho5dlvz-29" value="是" style="edgeLabel;html=1;align=center;verticalAlign=middle;resizable=0;points=[];" parent="hIa9dAdDlLu55Ho5dlvz-28" vertex="1" connectable="0">
                    <mxGeometry x="-0.1019" y="-3" relative="1" as="geometry">
                        <mxPoint as="offset"/>
                    </mxGeometry>
                </mxCell>
                <mxCell id="hIa9dAdDlLu55Ho5dlvz-33" style="edgeStyle=orthogonalEdgeStyle;rounded=0;orthogonalLoop=1;jettySize=auto;html=1;entryX=0.5;entryY=0;entryDx=0;entryDy=0;" parent="WIyWlLk6GJQsqaUBKTNV-1" source="hIa9dAdDlLu55Ho5dlvz-27" target="hIa9dAdDlLu55Ho5dlvz-31" edge="1">
                    <mxGeometry relative="1" as="geometry"/>
                </mxCell>
                <mxCell id="hIa9dAdDlLu55Ho5dlvz-35" value="否" style="edgeLabel;html=1;align=center;verticalAlign=middle;resizable=0;points=[];" parent="hIa9dAdDlLu55Ho5dlvz-33" vertex="1" connectable="0">
                    <mxGeometry x="0.3167" y="4" relative="1" as="geometry">
                        <mxPoint y="1" as="offset"/>
                    </mxGeometry>
                </mxCell>
                <mxCell id="hIa9dAdDlLu55Ho5dlvz-27" value="是否第一次&lt;br&gt;执行" style="rhombus;whiteSpace=wrap;html=1;" parent="WIyWlLk6GJQsqaUBKTNV-1" vertex="1">
                    <mxGeometry x="360" width="80" height="80" as="geometry"/>
                </mxCell>
                <mxCell id="hIa9dAdDlLu55Ho5dlvz-34" style="edgeStyle=orthogonalEdgeStyle;rounded=0;orthogonalLoop=1;jettySize=auto;html=1;entryX=0;entryY=0.5;entryDx=0;entryDy=0;" parent="WIyWlLk6GJQsqaUBKTNV-1" source="hIa9dAdDlLu55Ho5dlvz-31" target="RyURgr3Y3XsO1ozv0hEs-2" edge="1">
                    <mxGeometry relative="1" as="geometry"/>
                </mxCell>
                <mxCell id="hIa9dAdDlLu55Ho5dlvz-31" value="更新网络实例所有W权参，进入下一次循环" style="shape=process;whiteSpace=wrap;html=1;backgroundOutline=1;fontSize=11;movable=1;resizable=1;rotatable=1;deletable=1;editable=1;connectable=1;" parent="WIyWlLk6GJQsqaUBKTNV-1" vertex="1">
                    <mxGeometry x="224" y="110" width="131" height="60" as="geometry"/>
                </mxCell>
                <mxCell id="hIa9dAdDlLu55Ho5dlvz-37" value="" style="edgeStyle=orthogonalEdgeStyle;rounded=0;orthogonalLoop=1;jettySize=auto;html=1;entryX=0.44;entryY=0.917;entryDx=0;entryDy=0;entryPerimeter=0;" parent="WIyWlLk6GJQsqaUBKTNV-1" target="hIa9dAdDlLu55Ho5dlvz-2" edge="1">
                    <mxGeometry relative="1" as="geometry">
                        <mxPoint x="276" y="1360" as="sourcePoint"/>
                        <mxPoint x="300" y="1440" as="targetPoint"/>
                    </mxGeometry>
                </mxCell>
                <mxCell id="hIa9dAdDlLu55Ho5dlvz-39" value="" style="endArrow=classic;html=1;rounded=0;entryX=0.427;entryY=0.983;entryDx=0;entryDy=0;entryPerimeter=0;" parent="WIyWlLk6GJQsqaUBKTNV-1" source="hIa9dAdDlLu55Ho5dlvz-44" target="hIa9dAdDlLu55Ho5dlvz-11" edge="1">
                    <mxGeometry width="50" height="50" relative="1" as="geometry">
                        <mxPoint x="190" y="1330" as="sourcePoint"/>
                        <mxPoint x="240" y="1280" as="targetPoint"/>
                    </mxGeometry>
                </mxCell>
                <mxCell id="hIa9dAdDlLu55Ho5dlvz-41" value="" style="endArrow=classic;html=1;rounded=0;" parent="WIyWlLk6GJQsqaUBKTNV-1" target="RyURgr3Y3XsO1ozv0hEs-55" edge="1">
                    <mxGeometry width="50" height="50" relative="1" as="geometry">
                        <mxPoint x="275" y="930" as="sourcePoint"/>
                        <mxPoint x="240" y="1080" as="targetPoint"/>
                    </mxGeometry>
                </mxCell>
                <mxCell id="hIa9dAdDlLu55Ho5dlvz-42" value="backward&lt;br&gt;1.L'(W_1)=X_1(T)@L'(out_2)&lt;br&gt;2.L'(out_1)=L'(out_2)@W_1(T)" style="shape=process;whiteSpace=wrap;html=1;backgroundOutline=1;fontSize=11;movable=1;resizable=1;rotatable=1;deletable=1;editable=1;connectable=1;" parent="WIyWlLk6GJQsqaUBKTNV-1" vertex="1">
                    <mxGeometry x="180" y="827.5" width="190" height="60" as="geometry"/>
                </mxCell>
                <mxCell id="hIa9dAdDlLu55Ho5dlvz-43" value="&lt;span style=&quot;font-size: 11px;&quot;&gt;返回&lt;/span&gt;L'(out_2)作为&lt;br&gt;反向输入值" style="shape=parallelogram;perimeter=parallelogramPerimeter;whiteSpace=wrap;html=1;fixedSize=1;" parent="WIyWlLk6GJQsqaUBKTNV-1" vertex="1">
                    <mxGeometry x="200" y="922.5" width="150" height="60" as="geometry"/>
                </mxCell>
                <mxCell id="hIa9dAdDlLu55Ho5dlvz-44" value="backward&lt;br&gt;反向激活层，激活函数导函数F'()&lt;br&gt;L'(out_2)=L'(out_3)*F'(X_2)" style="shape=process;whiteSpace=wrap;html=1;backgroundOutline=1;" parent="WIyWlLk6GJQsqaUBKTNV-1" vertex="1">
                    <mxGeometry x="175" y="1060" width="200" height="70" as="geometry"/>
                </mxCell>
                <mxCell id="hIa9dAdDlLu55Ho5dlvz-45" value="&lt;span style=&quot;font-size: 11px;&quot;&gt;返回&lt;/span&gt;L'(out_n)作为&lt;br&gt;反向输入值" style="shape=parallelogram;perimeter=parallelogramPerimeter;whiteSpace=wrap;html=1;fixedSize=1;" parent="WIyWlLk6GJQsqaUBKTNV-1" vertex="1">
                    <mxGeometry x="200" y="1220" width="150" height="60" as="geometry"/>
                </mxCell>
                <mxCell id="hIa9dAdDlLu55Ho5dlvz-46" value="输出层，上一层的&lt;br&gt;L'(loss_out)=1&lt;br&gt;L'(out_n)=1*F'(Y_P)" style="shape=process;whiteSpace=wrap;html=1;backgroundOutline=1;" parent="WIyWlLk6GJQsqaUBKTNV-1" vertex="1">
                    <mxGeometry x="195" y="1360" width="160" height="60" as="geometry"/>
                </mxCell>
                <mxCell id="hIa9dAdDlLu55Ho5dlvz-48" value="" style="endArrow=classic;html=1;rounded=0;entryX=0.413;entryY=1.022;entryDx=0;entryDy=0;entryPerimeter=0;" parent="WIyWlLk6GJQsqaUBKTNV-1" target="RyURgr3Y3XsO1ozv0hEs-62" edge="1">
                    <mxGeometry width="50" height="50" relative="1" as="geometry">
                        <mxPoint x="277" y="700" as="sourcePoint"/>
                        <mxPoint x="220" y="600" as="targetPoint"/>
                    </mxGeometry>
                </mxCell>
                <mxCell id="hIa9dAdDlLu55Ho5dlvz-49" value="" style="endArrow=classic;html=1;rounded=0;entryX=0.429;entryY=1.041;entryDx=0;entryDy=0;entryPerimeter=0;" parent="WIyWlLk6GJQsqaUBKTNV-1" source="hIa9dAdDlLu55Ho5dlvz-42" target="hIa9dAdDlLu55Ho5dlvz-22" edge="1">
                    <mxGeometry width="50" height="50" relative="1" as="geometry">
                        <mxPoint x="294.99999999999955" y="710" as="sourcePoint"/>
                        <mxPoint x="286.72999999999956" y="671.3200000000002" as="targetPoint"/>
                    </mxGeometry>
                </mxCell>
                <mxCell id="hIa9dAdDlLu55Ho5dlvz-51" value="" style="endArrow=classic;html=1;rounded=0;entryX=0.5;entryY=1;entryDx=0;entryDy=0;" parent="WIyWlLk6GJQsqaUBKTNV-1" source="hIa9dAdDlLu55Ho5dlvz-23" target="RyURgr3Y3XsO1ozv0hEs-50" edge="1">
                    <mxGeometry width="50" height="50" relative="1" as="geometry">
                        <mxPoint x="170" y="540" as="sourcePoint"/>
                        <mxPoint x="220" y="490" as="targetPoint"/>
                    </mxGeometry>
                </mxCell>
                <mxCell id="hIa9dAdDlLu55Ho5dlvz-52" value="" style="endArrow=classic;html=1;rounded=0;entryX=0.5;entryY=1;entryDx=0;entryDy=0;" parent="WIyWlLk6GJQsqaUBKTNV-1" target="hIa9dAdDlLu55Ho5dlvz-23" edge="1">
                    <mxGeometry width="50" height="50" relative="1" as="geometry">
                        <mxPoint x="278" y="600" as="sourcePoint"/>
                        <mxPoint x="282.02" y="438.3800000000001" as="targetPoint"/>
                    </mxGeometry>
                </mxCell>
                <mxCell id="hIa9dAdDlLu55Ho5dlvz-53" value="" style="endArrow=classic;html=1;rounded=0;entryX=0.455;entryY=1;entryDx=0;entryDy=0;entryPerimeter=0;" parent="WIyWlLk6GJQsqaUBKTNV-1" source="RyURgr3Y3XsO1ozv0hEs-50" target="hIa9dAdDlLu55Ho5dlvz-26" edge="1">
                    <mxGeometry width="50" height="50" relative="1" as="geometry">
                        <mxPoint x="170" y="540" as="sourcePoint"/>
                        <mxPoint x="280" y="270" as="targetPoint"/>
                    </mxGeometry>
                </mxCell>
                <mxCell id="hIa9dAdDlLu55Ho5dlvz-58" value="" style="endArrow=classic;html=1;rounded=0;exitX=0.5;exitY=1;exitDx=0;exitDy=0;entryX=0.5;entryY=0;entryDx=0;entryDy=0;" parent="WIyWlLk6GJQsqaUBKTNV-1" source="RyURgr3Y3XsO1ozv0hEs-0" target="hIa9dAdDlLu55Ho5dlvz-27" edge="1">
                    <mxGeometry width="50" height="50" relative="1" as="geometry">
                        <mxPoint x="170" y="-180" as="sourcePoint"/>
                        <mxPoint x="220" y="-230" as="targetPoint"/>
                    </mxGeometry>
                </mxCell>
            </root>
        </mxGraphModel>
    </diagram>
</mxfile>